<?xml version="1.0" standalone="no"?>
<!DOCTYPE svg PUBLIC "-//W3C//DTD SVG 20010904//EN"
 "http://www.w3.org/TR/2001/REC-SVG-20010904/DTD/svg10.dtd">
<svg version="1.0" xmlns="http://www.w3.org/2000/svg"
 width="512.000000pt" height="512.000000pt" viewBox="0 0 512.000000 512.000000"
 preserveAspectRatio="xMidYMid meet">
<metadata>
Created by potrace 1.14, written by Peter Selinger 2001-2017
</metadata>
<g transform="translate(0.000000,512.000000) scale(0.100000,-0.100000)"
fill="#000000" stroke="none">
<path d="M3962 3429 c-99 -25 -161 -60 -237 -136 -157 -155 -240 -415 -239
-748 1 -346 97 -601 286 -761 129 -109 392 -143 568 -74 135 53 250 169 317
318 24 55 69 179 71 195 0 4 6 40 13 80 15 78 18 407 6 494 -25 173 -121 392
-215 489 -136 142 -359 197 -570 143z m266 -247 c2 -6 10 -12 17 -12 24 0 102
-88 129 -146 58 -122 70 -205 71 -474 0 -240 -1 -247 -28 -334 -38 -123 -69
-186 -109 -226 -73 -73 -227 -96 -307 -46 -149 95 -212 293 -206 656 3 169 16
263 55 375 55 159 141 224 294 221 53 -1 81 -5 84 -14z"/>
<path d="M360 2562 l0 -868 160 0 c155 0 160 0 161 20 0 12 1 182 1 379 1 251
4 357 12 358 6 0 189 1 406 2 l395 1 5 -380 5 -379 158 -1 c154 -2 157 -1 158
20 1 26 1 1698 0 1709 -1 4 -71 7 -156 7 -141 0 -155 -2 -156 -17 -1 -10 -2
-173 -4 -363 -1 -190 -3 -350 -3 -355 -2 -7 -135 -11 -407 -11 l-405 0 0 373
0 373 -165 0 -165 0 0 -868z"/>
<path d="M2825 3422 c-6 -4 -37 -43 -70 -87 -33 -44 -63 -84 -67 -90 -7 -9
-32 -42 -115 -151 -150 -198 -473 -629 -497 -663 -17 -24 -41 -55 -53 -70 -13
-14 -21 -33 -19 -41 3 -8 10 -47 17 -87 21 -123 -8 -116 439 -116 l380 -1 0
-211 0 -212 128 1 127 1 0 211 0 212 93 -1 c61 0 97 4 105 12 11 11 26 168 19
203 -2 12 -21 15 -100 14 -53 -1 -103 0 -109 2 -10 3 -13 121 -13 543 l0 539
-127 0 c-71 0 -133 -4 -138 -8z m29 -715 c-1 -189 -3 -348 -7 -353 -5 -9 -513
-12 -521 -3 -2 2 48 76 112 165 65 88 182 251 262 362 88 122 147 196 150 187
3 -8 5 -169 4 -358z"/>
</g>
</svg>
